Coordinates
nRows=234
nColumns=2
inDegrees=yes
endheader
time	ankle_angle_r	
2.99395	  9.205033	
3.02722	  9.247596	
3.06048	  9.271783	
3.09375	  9.279454	
3.12702	  9.280047	
3.16028	  9.277619	
3.19355	  9.280615	
3.22681	  9.297996	
3.26008	  9.323776	
3.29335	  9.346100	
3.32661	  9.359404	
3.35988	  9.362503	
3.39315	  9.360605	
3.42641	  9.360182	
3.45968	  9.357473	
3.49294	  9.347764	
3.52621	  9.337667	
3.55948	  9.336986	
3.59274	  9.348048	
3.62601	  9.363625	
3.65927	  9.372913	
3.69254	  9.372667	
3.72581	  9.368269	
3.75907	  9.366437	
3.79234	  9.371256	
3.8256	  9.378638	
3.85887	  9.377561	
3.89214	  9.364429	
3.9254	  9.344918	
3.95867	  9.324387	
3.99194	  9.309227	
4.0252	  9.304608	
4.05847	  9.307504	
4.09173	  9.312034	
4.125	  9.312455	
4.15827	  9.303262	
4.19153	  9.286482	
4.2248	  9.268935	
4.25806	  9.254974	
4.29133	  9.250648	
4.3246	  9.261240	
4.35786	  9.280020	
4.39113	  9.292619	
4.4244	  9.292145	
4.45766	  9.283045	
4.49093	  9.274716	
4.52419	  9.271880	
4.55746	  9.271299	
4.59073	  9.271352	
4.62399	  9.273448	
4.65726	  9.274655	
4.69052	  9.275309	
4.72379	  9.282305	
4.75706	  9.292870	
4.79032	  9.293159	
4.82359	  9.277345	
4.85685	  9.256250	
4.89012	  9.247279	
4.92339	  9.256445	
4.95665	  9.273351	
4.98992	  9.284177	
5.02319	  9.280607	
5.05645	  9.263233	
5.08972	  9.242911	
5.12298	  9.229777	
5.15625	  9.224846	
5.18952	  9.228965	
5.22278	  9.243697	
5.25605	  9.259567	
5.28931	  9.264000	
5.32258	  9.256065	
5.35585	  9.241724	
5.38911	  9.227459	
5.42238	  9.219010	
5.45565	  9.217550	
5.48891	  9.219987	
5.52218	  9.220962	
5.55544	  9.217325	
5.58871	  9.215107	
5.62198	  9.220587	
5.65524	  9.230141	
5.68851	  9.241329	
5.72177	  9.257189	
5.75504	  9.273968	
5.78831	  9.281749	
5.82157	  9.276660	
5.85484	  9.263458	
5.8881	  9.249454	
5.92137	  9.239035	
5.95464	  9.234054	
5.9879	  9.239002	
6.02117	  9.256497	
6.05444	  9.278104	
6.0877	  9.293362	
6.12097	  9.300037	
6.15423	  9.300728	
6.1875	  9.304623	
6.22077	  9.321773	
6.25403	  9.345831	
6.2873	  9.358498	
6.32056	  9.351429	
6.35383	  9.336351	
6.3871	  9.332161	
6.42036	  9.342258	
6.45363	  9.352943	
6.4869	  9.354608	
6.52016	  9.352012	
6.55343	  9.351005	
6.58669	  9.347651	
6.61996	  9.336212	
6.65323	  9.322379	
6.68649	  9.320318	
6.71976	  9.332303	
6.75302	  9.344913	
6.78629	  9.349249	
6.81956	  9.347531	
6.85282	  9.342949	
6.88609	  9.335522	
6.91935	  9.325073	
6.95262	  9.316006	
6.98589	  9.314083	
7.01915	  9.313647	
7.05242	  9.302325	
7.08569	  9.280957	
7.11895	  9.259820	
7.15222	  9.245134	
7.18548	  9.242352	
7.21875	  9.252444	
7.25202	  9.264214	
7.28528	  9.264953	
7.31855	  9.253315	
7.35181	  9.239265	
7.38508	  9.231985	
7.41835	  9.228191	
7.45161	  9.220475	
7.48488	  9.211518	
7.51815	  9.209861	
7.55141	  9.219720	
7.58468	  9.238712	
7.61794	  9.260662	
7.65121	  9.281737	
7.68448	  9.301408	
7.71774	  9.317686	
7.75101	  9.327848	
7.78427	  9.330594	
7.81754	  9.326140	
7.85081	  9.319860	
7.88407	  9.319777	
7.91734	  9.327071	
7.9506	  9.336686	
7.98387	  9.343553	
8.01714	  9.343818	
8.0504	  9.337536	
8.08367	  9.330354	
8.11694	  9.326940	
8.1502	  9.325769	
8.18347	  9.321954	
8.21673	  9.313985	
8.25	  9.308182	
8.28327	  9.310352	
8.31653	  9.315577	
8.3498	  9.316124	
8.38306	  9.310517	
8.41633	  9.298634	
8.4496	  9.280605	
8.48286	  9.260049	
8.51613	  9.242734	
8.5494	  9.235580	
8.58266	  9.237307	
8.61593	  9.236011	
8.64919	  9.229214	
8.68246	  9.224207	
8.71573	  9.219483	
8.74899	  9.212210	
8.78226	  9.208109	
8.81552	  9.210309	
8.84879	  9.218930	
8.88206	  9.232758	
8.91532	  9.239725	
8.94859	  9.231429	
8.98185	  9.219953	
9.01512	  9.217278	
9.04839	  9.218892	
9.08165	  9.218291	
9.11492	  9.218891	
9.14819	  9.227950	
9.18145	  9.247010	
9.21472	  9.270369	
9.24798	  9.289225	
9.28125	  9.296325	
9.31452	  9.293073	
9.34778	  9.290797	
9.38105	  9.298558	
9.41431	  9.313550	
9.44758	  9.326357	
9.48085	  9.330670	
9.51411	  9.326934	
9.54738	  9.320839	
9.58065	  9.317523	
9.61391	  9.315905	
9.64718	  9.312528	
9.68044	  9.308436	
9.71371	  9.306887	
9.74698	  9.308753	
9.78024	  9.309529	
9.81351	  9.299118	
9.84677	  9.275646	
9.88004	  9.251358	
9.91331	  9.235079	
9.94657	  9.229094	
9.97984	  9.238239	
10.0131	  9.257088	
10.0464	  9.265767	
10.0796	  9.255239	
10.1129	  9.237736	
10.1462	  9.229817	
10.1794	  9.237209	
10.2127	  9.251059	
10.246	  9.256373	
10.2792	  9.247355	
10.3125	  9.232951	
10.3458	  9.229083	
10.379	  9.241822	
10.4123	  9.258165	
10.4456	  9.262455	
10.4788	  9.253500	
10.5121	  9.241076	
10.5454	  9.236633	
10.5786	  9.243218	
10.6119	  9.251690	
10.6452	  9.254894	
10.6784	  9.256078	
10.7117	  9.257054	
10.745	  9.255599	
